{
	"asset":{
		"generator":"Khronos glTF Blender I/O v4.4.56",
		"version":"2.0"
	},
	"scene":0,
	"scenes":[
		{
			"name":"Scene",
			"nodes":[
				0,
				1,
				2,
				3,
				4,
				5,
				6,
				7,
				8,
				9,
				10,
				11,
				12
			]
		}
	],
	"nodes":[
		{
			"mesh":0,
			"name":"piso",
			"scale":[
				-10.884587287902832,
				-10.884587287902832,
				-10.884587287902832
			],
			"translation":[
				-7.187341213226318,
				0.22343634068965912,
				0.9340916872024536
			]
		},
		{
			"mesh":1,
			"name":"Costa_Rica",
			"rotation":[
				0,
				0,
				-0.7071068286895752,
				0.7071068286895752
			],
			"translation":[
				-9.529261589050293,
				4.618661880493164,
				-0.31420475244522095
			]
		},
		{
			"name":"Wind",
			"rotation":[
				-0.7071068286895752,
				0,
				0,
				0.7071068286895752
			],
			"translation":[
				-0.792717695236206,
				4.6542816162109375,
				11.058961868286133
			]
		},
		{
			"mesh":2,
			"name":"mastilCR",
			"rotation":[
				0,
				0,
				-1,
				0
			],
			"scale":[
				-0.08808077126741409,
				-2.923110246658325,
				-0.09435293823480606
			],
			"translation":[
				-9.526938438415527,
				2.749727249145508,
				1.2911386489868164
			]
		},
		{
			"mesh":3,
			"name":"piso.001",
			"scale":[
				50,
				50,
				50
			],
			"translation":[
				0.2949409484863281,
				-0.21426528692245483,
				-3.524501323699951
			]
		},
		{
			"mesh":4,
			"name":"El_Salvador",
			"rotation":[
				0,
				0,
				-0.7071068286895752,
				0.7071068286895752
			],
			"translation":[
				-5.1593918800354,
				4.9874420166015625,
				-7.130565166473389
			]
		},
		{
			"mesh":5,
			"name":"mastilES",
			"rotation":[
				0,
				0,
				-1,
				0
			],
			"scale":[
				-0.08808077126741409,
				-2.923110246658325,
				-0.09435293823480606
			],
			"translation":[
				-5.157068729400635,
				3.1185076236724854,
				-5.525221824645996
			]
		},
		{
			"mesh":6,
			"name":"Guatemala",
			"rotation":[
				0,
				0,
				-0.7071068286895752,
				0.7071068286895752
			],
			"translation":[
				0.441842257976532,
				4.76939582824707,
				7.395986557006836
			]
		},
		{
			"mesh":7,
			"name":"mastilG",
			"rotation":[
				0,
				0,
				-1,
				0
			],
			"scale":[
				-0.08808077126741409,
				-2.923110246658325,
				-0.09435293823480606
			],
			"translation":[
				0.44416534900665283,
				2.900460958480835,
				9.00132942199707
			]
		},
		{
			"mesh":8,
			"name":"Honduras",
			"rotation":[
				0,
				0,
				-0.7071068286895752,
				0.7071068286895752
			],
			"translation":[
				0.6863768100738525,
				4.834502696990967,
				-8.776775360107422
			]
		},
		{
			"mesh":9,
			"name":"mastilH",
			"rotation":[
				0,
				0,
				-1,
				0
			],
			"scale":[
				-0.08808077126741409,
				-2.923110246658325,
				-0.09435293823480606
			],
			"translation":[
				0.6886999011039734,
				2.9655680656433105,
				-7.171432971954346
			]
		},
		{
			"mesh":10,
			"name":"Nicaragua",
			"rotation":[
				0,
				0,
				-0.7071068286895752,
				0.7071068286895752
			],
			"translation":[
				-6.350752830505371,
				4.944936752319336,
				5.8840789794921875
			]
		},
		{
			"mesh":11,
			"name":"mastilNic",
			"rotation":[
				0,
				0,
				-1,
				0
			],
			"scale":[
				-0.08808077126741409,
				-2.923110246658325,
				-0.09435293823480606
			],
			"translation":[
				-6.3484296798706055,
				3.0760021209716797,
				7.489421844482422
			]
		}
	],
	"materials":[
		{
			"doubleSided":true,
			"name":"cesped"
		},
		{
			"doubleSided":true,
			"name":"FlagCR",
			"pbrMetallicRoughness":{
				"baseColorTexture":{
					"index":0
				},
				"metallicFactor":0,
				"roughnessFactor":0.5
			}
		},
		{
			"doubleSided":true,
			"name":"Mastilesss",
			"pbrMetallicRoughness":{
				"baseColorFactor":[
					0.18048113584518433,
					0.14523789286613464,
					0.06508208811283112,
					1
				],
				"metallicFactor":0,
				"roughnessFactor":0.5
			}
		},
		{
			"doubleSided":true,
			"name":"FlagES",
			"pbrMetallicRoughness":{
				"baseColorTexture":{
					"index":1
				},
				"metallicFactor":0,
				"roughnessFactor":0.5
			}
		},
		{
			"doubleSided":true,
			"name":"FlagGua",
			"pbrMetallicRoughness":{
				"baseColorTexture":{
					"index":2
				},
				"metallicFactor":0,
				"roughnessFactor":0.5
			}
		},
		{
			"doubleSided":true,
			"name":"FlagHon",
			"pbrMetallicRoughness":{
				"baseColorTexture":{
					"index":3
				},
				"metallicFactor":0,
				"roughnessFactor":0.5
			}
		},
		{
			"doubleSided":true,
			"name":"FlagNic",
			"pbrMetallicRoughness":{
				"baseColorTexture":{
					"index":4
				},
				"metallicFactor":0,
				"roughnessFactor":0.5
			}
		}
	],
	"meshes":[
		{
			"name":"Plane",
			"primitives":[
				{
					"attributes":{
						"POSITION":0,
						"NORMAL":1,
						"TEXCOORD_0":2
					},
					"indices":3,
					"material":0
				}
			]
		},
		{
			"name":"Mesh",
			"primitives":[
				{
					"attributes":{
						"POSITION":4,
						"NORMAL":5,
						"TEXCOORD_0":6
					},
					"indices":7,
					"material":1
				}
			]
		},
		{
			"name":"Cylinder",
			"primitives":[
				{
					"attributes":{
						"POSITION":8,
						"NORMAL":9,
						"TEXCOORD_0":10
					},
					"indices":11,
					"material":2
				}
			]
		},
		{
			"name":"Plane.002",
			"primitives":[
				{
					"attributes":{
						"POSITION":12,
						"NORMAL":13,
						"TEXCOORD_0":14
					},
					"indices":3
				}
			]
		},
		{
			"name":"Mesh",
			"primitives":[
				{
					"attributes":{
						"POSITION":15,
						"NORMAL":16,
						"TEXCOORD_0":17
					},
					"indices":18,
					"material":3
				}
			]
		},
		{
			"name":"Cylinder.001",
			"primitives":[
				{
					"attributes":{
						"POSITION":19,
						"NORMAL":20,
						"TEXCOORD_0":21
					},
					"indices":11,
					"material":2
				}
			]
		},
		{
			"name":"Mesh",
			"primitives":[
				{
					"attributes":{
						"POSITION":22,
						"NORMAL":23,
						"TEXCOORD_0":24
					},
					"indices":25,
					"material":4
				}
			]
		},
		{
			"name":"Cylinder.003",
			"primitives":[
				{
					"attributes":{
						"POSITION":26,
						"NORMAL":27,
						"TEXCOORD_0":28
					},
					"indices":11,
					"material":2
				}
			]
		},
		{
			"name":"Mesh",
			"primitives":[
				{
					"attributes":{
						"POSITION":29,
						"NORMAL":30,
						"TEXCOORD_0":31
					},
					"indices":32,
					"material":5
				}
			]
		},
		{
			"name":"Cylinder.004",
			"primitives":[
				{
					"attributes":{
						"POSITION":33,
						"NORMAL":34,
						"TEXCOORD_0":35
					},
					"indices":11,
					"material":2
				}
			]
		},
		{
			"name":"Mesh",
			"primitives":[
				{
					"attributes":{
						"POSITION":36,
						"NORMAL":37,
						"TEXCOORD_0":38
					},
					"indices":39,
					"material":6
				}
			]
		},
		{
			"name":"Cylinder.005",
			"primitives":[
				{
					"attributes":{
						"POSITION":40,
						"NORMAL":41,
						"TEXCOORD_0":42
					},
					"indices":11,
					"material":2
				}
			]
		}
	],
	"textures":[
		{
			"sampler":0,
			"source":0
		},
		{
			"sampler":0,
			"source":1
		},
		{
			"sampler":0,
			"source":2
		},
		{
			"sampler":0,
			"source":3
		},
		{
			"sampler":0,
			"source":4
		}
	],
	"images":[
		{
			"mimeType":"image/png",
			"name":"CostaRica",
			"uri":"textures/CostaRica.png"
		},
		{
			"mimeType":"image/png",
			"name":"ElSalvador",
			"uri":"textures/ElSalvador.png"
		},
		{
			"mimeType":"image/png",
			"name":"Guatemala",
			"uri":"textures/Guatemala.png"
		},
		{
			"mimeType":"image/png",
			"name":"Honduras",
			"uri":"textures/Honduras.png"
		},
		{
			"mimeType":"image/png",
			"name":"Nicaragua",
			"uri":"textures/Nicaragua.png"
		}
	],
	"accessors":[
		{
			"bufferView":0,
			"componentType":5126,
			"count":4,
			"max":[
				1,
				0,
				1
			],
			"min":[
				-1,
				0,
				-1
			],
			"type":"VEC3"
		},
		{
			"bufferView":1,
			"componentType":5126,
			"count":4,
			"type":"VEC3"
		},
		{
			"bufferView":2,
			"componentType":5126,
			"count":4,
			"type":"VEC2"
		},
		{
			"bufferView":3,
			"componentType":5123,
			"count":6,
			"type":"SCALAR"
		},
		{
			"bufferView":4,
			"componentType":5126,
			"count":8179,
			"max":[
				1.0000001192092896,
				0,
				1.500000238418579
			],
			"min":[
				-1.0000001192092896,
				0,
				-1.500000238418579
			],
			"type":"VEC3"
		},
		{
			"bufferView":5,
			"componentType":5126,
			"count":8179,
			"type":"VEC3"
		},
		{
			"bufferView":6,
			"componentType":5126,
			"count":8179,
			"type":"VEC2"
		},
		{
			"bufferView":7,
			"componentType":5123,
			"count":46464,
			"type":"SCALAR"
		},
		{
			"bufferView":8,
			"componentType":5126,
			"count":192,
			"max":[
				1,
				1.0113725662231445,
				1
			],
			"min":[
				-1,
				-1,
				-1
			],
			"type":"VEC3"
		},
		{
			"bufferView":9,
			"componentType":5126,
			"count":192,
			"type":"VEC3"
		},
		{
			"bufferView":10,
			"componentType":5126,
			"count":192,
			"type":"VEC2"
		},
		{
			"bufferView":11,
			"componentType":5123,
			"count":372,
			"type":"SCALAR"
		},
		{
			"bufferView":12,
			"componentType":5126,
			"count":4,
			"max":[
				1,
				0,
				1
			],
			"min":[
				-1,
				0,
				-1
			],
			"type":"VEC3"
		},
		{
			"bufferView":13,
			"componentType":5126,
			"count":4,
			"type":"VEC3"
		},
		{
			"bufferView":14,
			"componentType":5126,
			"count":4,
			"type":"VEC2"
		},
		{
			"bufferView":15,
			"componentType":5126,
			"count":8185,
			"max":[
				1.0000001192092896,
				0,
				1.500000238418579
			],
			"min":[
				-1.0000001192092896,
				0,
				-1.500000238418579
			],
			"type":"VEC3"
		},
		{
			"bufferView":16,
			"componentType":5126,
			"count":8185,
			"type":"VEC3"
		},
		{
			"bufferView":17,
			"componentType":5126,
			"count":8185,
			"type":"VEC2"
		},
		{
			"bufferView":18,
			"componentType":5123,
			"count":46464,
			"type":"SCALAR"
		},
		{
			"bufferView":19,
			"componentType":5126,
			"count":192,
			"max":[
				1,
				1.0113725662231445,
				1
			],
			"min":[
				-1,
				-1,
				-1
			],
			"type":"VEC3"
		},
		{
			"bufferView":20,
			"componentType":5126,
			"count":192,
			"type":"VEC3"
		},
		{
			"bufferView":21,
			"componentType":5126,
			"count":192,
			"type":"VEC2"
		},
		{
			"bufferView":22,
			"componentType":5126,
			"count":8173,
			"max":[
				1.0000001192092896,
				0,
				1.500000238418579
			],
			"min":[
				-1.0000001192092896,
				0,
				-1.500000238418579
			],
			"type":"VEC3"
		},
		{
			"bufferView":23,
			"componentType":5126,
			"count":8173,
			"type":"VEC3"
		},
		{
			"bufferView":24,
			"componentType":5126,
			"count":8173,
			"type":"VEC2"
		},
		{
			"bufferView":25,
			"componentType":5123,
			"count":46464,
			"type":"SCALAR"
		},
		{
			"bufferView":26,
			"componentType":5126,
			"count":192,
			"max":[
				1,
				1.0113725662231445,
				1
			],
			"min":[
				-1,
				-1,
				-1
			],
			"type":"VEC3"
		},
		{
			"bufferView":27,
			"componentType":5126,
			"count":192,
			"type":"VEC3"
		},
		{
			"bufferView":28,
			"componentType":5126,
			"count":192,
			"type":"VEC2"
		},
		{
			"bufferView":29,
			"componentType":5126,
			"count":8180,
			"max":[
				1.0000001192092896,
				0,
				1.500000238418579
			],
			"min":[
				-1.0000001192092896,
				0,
				-1.500000238418579
			],
			"type":"VEC3"
		},
		{
			"bufferView":30,
			"componentType":5126,
			"count":8180,
			"type":"VEC3"
		},
		{
			"bufferView":31,
			"componentType":5126,
			"count":8180,
			"type":"VEC2"
		},
		{
			"bufferView":32,
			"componentType":5123,
			"count":46464,
			"type":"SCALAR"
		},
		{
			"bufferView":33,
			"componentType":5126,
			"count":192,
			"max":[
				1,
				1.0113725662231445,
				1
			],
			"min":[
				-1,
				-1,
				-1
			],
			"type":"VEC3"
		},
		{
			"bufferView":34,
			"componentType":5126,
			"count":192,
			"type":"VEC3"
		},
		{
			"bufferView":35,
			"componentType":5126,
			"count":192,
			"type":"VEC2"
		},
		{
			"bufferView":36,
			"componentType":5126,
			"count":8167,
			"max":[
				1.0000001192092896,
				0,
				1.500000238418579
			],
			"min":[
				-1.0000001192092896,
				0,
				-1.500000238418579
			],
			"type":"VEC3"
		},
		{
			"bufferView":37,
			"componentType":5126,
			"count":8167,
			"type":"VEC3"
		},
		{
			"bufferView":38,
			"componentType":5126,
			"count":8167,
			"type":"VEC2"
		},
		{
			"bufferView":39,
			"componentType":5123,
			"count":46464,
			"type":"SCALAR"
		},
		{
			"bufferView":40,
			"componentType":5126,
			"count":192,
			"max":[
				1,
				1.0113725662231445,
				1
			],
			"min":[
				-1,
				-1,
				-1
			],
			"type":"VEC3"
		},
		{
			"bufferView":41,
			"componentType":5126,
			"count":192,
			"type":"VEC3"
		},
		{
			"bufferView":42,
			"componentType":5126,
			"count":192,
			"type":"VEC2"
		}
	],
	"bufferViews":[
		{
			"buffer":0,
			"byteLength":48,
			"byteOffset":0,
			"target":34962
		},
		{
			"buffer":0,
			"byteLength":48,
			"byteOffset":48,
			"target":34962
		},
		{
			"buffer":0,
			"byteLength":32,
			"byteOffset":96,
			"target":34962
		},
		{
			"buffer":0,
			"byteLength":12,
			"byteOffset":128,
			"target":34963
		},
		{
			"buffer":0,
			"byteLength":98148,
			"byteOffset":140,
			"target":34962
		},
		{
			"buffer":0,
			"byteLength":98148,
			"byteOffset":98288,
			"target":34962
		},
		{
			"buffer":0,
			"byteLength":65432,
			"byteOffset":196436,
			"target":34962
		},
		{
			"buffer":0,
			"byteLength":92928,
			"byteOffset":261868,
			"target":34963
		},
		{
			"buffer":0,
			"byteLength":2304,
			"byteOffset":354796,
			"target":34962
		},
		{
			"buffer":0,
			"byteLength":2304,
			"byteOffset":357100,
			"target":34962
		},
		{
			"buffer":0,
			"byteLength":1536,
			"byteOffset":359404,
			"target":34962
		},
		{
			"buffer":0,
			"byteLength":744,
			"byteOffset":360940,
			"target":34963
		},
		{
			"buffer":0,
			"byteLength":48,
			"byteOffset":361684,
			"target":34962
		},
		{
			"buffer":0,
			"byteLength":48,
			"byteOffset":361732,
			"target":34962
		},
		{
			"buffer":0,
			"byteLength":32,
			"byteOffset":361780,
			"target":34962
		},
		{
			"buffer":0,
			"byteLength":98220,
			"byteOffset":361812,
			"target":34962
		},
		{
			"buffer":0,
			"byteLength":98220,
			"byteOffset":460032,
			"target":34962
		},
		{
			"buffer":0,
			"byteLength":65480,
			"byteOffset":558252,
			"target":34962
		},
		{
			"buffer":0,
			"byteLength":92928,
			"byteOffset":623732,
			"target":34963
		},
		{
			"buffer":0,
			"byteLength":2304,
			"byteOffset":716660,
			"target":34962
		},
		{
			"buffer":0,
			"byteLength":2304,
			"byteOffset":718964,
			"target":34962
		},
		{
			"buffer":0,
			"byteLength":1536,
			"byteOffset":721268,
			"target":34962
		},
		{
			"buffer":0,
			"byteLength":98076,
			"byteOffset":722804,
			"target":34962
		},
		{
			"buffer":0,
			"byteLength":98076,
			"byteOffset":820880,
			"target":34962
		},
		{
			"buffer":0,
			"byteLength":65384,
			"byteOffset":918956,
			"target":34962
		},
		{
			"buffer":0,
			"byteLength":92928,
			"byteOffset":984340,
			"target":34963
		},
		{
			"buffer":0,
			"byteLength":2304,
			"byteOffset":1077268,
			"target":34962
		},
		{
			"buffer":0,
			"byteLength":2304,
			"byteOffset":1079572,
			"target":34962
		},
		{
			"buffer":0,
			"byteLength":1536,
			"byteOffset":1081876,
			"target":34962
		},
		{
			"buffer":0,
			"byteLength":98160,
			"byteOffset":1083412,
			"target":34962
		},
		{
			"buffer":0,
			"byteLength":98160,
			"byteOffset":1181572,
			"target":34962
		},
		{
			"buffer":0,
			"byteLength":65440,
			"byteOffset":1279732,
			"target":34962
		},
		{
			"buffer":0,
			"byteLength":92928,
			"byteOffset":1345172,
			"target":34963
		},
		{
			"buffer":0,
			"byteLength":2304,
			"byteOffset":1438100,
			"target":34962
		},
		{
			"buffer":0,
			"byteLength":2304,
			"byteOffset":1440404,
			"target":34962
		},
		{
			"buffer":0,
			"byteLength":1536,
			"byteOffset":1442708,
			"target":34962
		},
		{
			"buffer":0,
			"byteLength":98004,
			"byteOffset":1444244,
			"target":34962
		},
		{
			"buffer":0,
			"byteLength":98004,
			"byteOffset":1542248,
			"target":34962
		},
		{
			"buffer":0,
			"byteLength":65336,
			"byteOffset":1640252,
			"target":34962
		},
		{
			"buffer":0,
			"byteLength":92928,
			"byteOffset":1705588,
			"target":34963
		},
		{
			"buffer":0,
			"byteLength":2304,
			"byteOffset":1798516,
			"target":34962
		},
		{
			"buffer":0,
			"byteLength":2304,
			"byteOffset":1800820,
			"target":34962
		},
		{
			"buffer":0,
			"byteLength":1536,
			"byteOffset":1803124,
			"target":34962
		}
	],
	"samplers":[
		{
			"magFilter":9729,
			"minFilter":9987
		}
	],
	"buffers":[
		{
			"byteLength":1804660,
			"uri":"PG.bin"
		}
	]
}
